<?xml version="1.0"?>
<svg id="Layer_1" data-name="Layer 1" xmlns="http://www.w3.org/2000/svg" viewBox="0 0 730.72 88.81">
  
  <g>
    <path fill="#3f415c" d="M216.56,51.07c0-18.15,13.31-31.46,32.19-31.46s32.19,13.31,32.19,31.46-13.31,31.46-32.19,31.46-32.19-13.31-32.19-31.46ZM277.67,51.07c0-16.34-11.62-28.56-28.92-28.56s-28.92,12.22-28.92,28.56,11.62,28.56,28.92,28.56,28.92-12.22,28.92-28.56Z"></path>
    <path fill="#3f415c" d="M290.37,52.52v-31.34h3.15v31.34c0,17.3,10.41,27.11,26.38,27.11s26.38-9.8,26.38-27.11v-31.34h3.15v31.34c0,19.73-11.86,30.01-29.53,30.01s-29.53-10.29-29.53-30.01Z"></path>
    <path fill="#3f415c" d="M361.29,44.17c0-16.46,9.92-24.56,24.32-24.56s24.2,8.11,24.2,24.56v1.09h-3.03v-1.09c0-14.64-8.47-21.66-21.17-21.66s-21.18,7.02-21.18,21.66v36.79h-3.15v-36.79Z"></path>
    <path fill="#3f415c" d="M451.92,64.5h-35.82v-12.46L451.92,1.81h14.4v49.73h7.74v12.95h-7.74v16.46h-14.4v-16.46ZM452.16,51.55v-30.01l-20.81,30.01h20.81Z"></path>
    <path fill="#3f415c" d="M481.2,51.07c0-18.15,13.31-31.46,32.19-31.46,16.22,0,28.07,9.8,30.98,23.96h-14.52c-2.54-6.41-8.59-10.53-16.46-10.53-10.53,0-17.67,7.5-17.67,18.03s7.14,18.03,17.67,18.03c7.86,0,13.92-4.11,16.46-10.53h14.52c-2.91,14.16-14.76,23.96-30.98,23.96-18.88,0-32.19-13.31-32.19-31.46Z"></path>
    <path fill="#3f415c" d="M553.81,52.28v-31.1h14.4v31.1c0,11.37,6.05,16.82,15.12,16.82s15.13-5.44,15.13-16.82v-31.1h14.4v31.1c0,19.97-11.86,30.25-29.53,30.25s-29.53-10.17-29.53-30.25Z"></path>
    <path fill="#3f415c" d="M624.72,57.96V0h14.4v21.18h30.86v13.07h-30.86v23.72c0,7.99,4.12,11.13,10.04,11.13s10.04-3.02,10.04-11.13v-1.57h14.4v1.57c0,16.58-9.92,24.57-24.44,24.57s-24.44-7.99-24.44-24.57Z"></path>
    <path fill="#3f415c" d="M680.5,63.29h14.52c.12,3.99,3.63,6.66,10.65,6.66,7.38,0,10.53-3.02,10.53-6.66,0-4.6-5.32-5.2-11.74-6.05-9.2-1.21-22.75-2.78-22.75-17.43,0-12.22,9.32-20.21,23.72-20.21s23.6,8.23,23.96,18.76h-14.28c-.36-3.63-3.75-6.17-9.44-6.17-6.29,0-9.44,3.03-9.44,6.53,0,4.6,5.45,5.32,11.86,6.17,7.99,1.09,22.63,2.66,22.63,17.55,0,12.1-9.8,20.09-25.05,20.09s-24.81-8.11-25.17-19.24Z"></path>
  </g>
  <path fill="#82b29a" d="M87.17,81.67c0,2.84-.54,4.41-1.63,5.46-1.58,1.5-3.87,2.16-6.17,1.31l-24.45-9.03c-3.32-1.23-5.55-4.02-5.55-7.69l-.12-57.14c0-1.86.63-3.42,1.42-4.17,1.32-1.25,3.58-1.96,5.53-1.25l25.42,9.2c2.76,1,5.36,3.71,5.37,6.8l.18,56.52Z"></path>
  <path fill="#f2cc8f" d="M104.4,79.5c-3.63-1.34-6.09-4.09-6.09-7.76l.1-46.63c0-3.44,3.27-6.02,6.17-7.07l24.71-8.96c1.52-.55,3.83-.05,4.92.72.89.62,1.83,1.99,1.83,3.9v69.35c.01,2.15-1.09,3.77-2.09,4.55-1.52,1.18-3.63,1.46-5.55.76l-24-8.86Z"></path>
  <path fill="#e07a5f" d="M157.61,87.28c-3.15,1.08-7.87,2.65-9.03-1.4-.99-3.46-.67-8.06-.69-11.99l-.2-47.95c-.02-3.69,2.71-6.77,5.9-7.91l24.71-8.86c1.71-.61,3.62-.3,5.09.55,1.16.68,2.21,2.48,2.21,4.78l.08,57.31c0,4.02-1.41,6.35-5.09,7.61l-22.99,7.86Z"></path>
  <path fill="#3f415c" d="M7.94,79.96c-3.5-1.31-7.75-3.24-7.76-7.28L0,25.96c-.01-3.34,1.81-6.38,4.92-7.51l25.42-9.2c1.71-.62,3.54-.32,5.01.49,1.2.66,2.24,2.46,2.24,4.78l.03,68.71c0,1.84-1.02,3.47-1.78,4.23-1.27,1.28-3.53,1.59-5.43.89l-22.47-8.38Z"></path>
</svg>